<svg style="position: absolute; width: 0; height: 0;" width="0" height="0" version="1.1" xmlns="http://www.w3.org/2000/svg" xmlns:xlink="http://www.w3.org/1999/xlink">
<defs>

<symbol id="icon-twitter" viewBox="0 0 16 16">
  <title>twitter</title>
  <path class="path1" d="M16 3.538c-0.588 0.263-1.222 0.438-1.884 0.516 0.678-0.406 1.197-1.050 1.444-1.816-0.634 0.375-1.338 0.65-2.084 0.797-0.6-0.638-1.453-1.034-2.397-1.034-1.813 0-3.281 1.469-3.281 3.281 0 0.256 0.028 0.506 0.084 0.747-2.728-0.138-5.147-1.444-6.766-3.431-0.281 0.484-0.444 1.050-0.444 1.65 0 1.138 0.578 2.144 1.459 2.731-0.538-0.016-1.044-0.166-1.488-0.409 0 0.013 0 0.028 0 0.041 0 1.591 1.131 2.919 2.634 3.219-0.275 0.075-0.566 0.116-0.866 0.116-0.212 0-0.416-0.022-0.619-0.059 0.419 1.303 1.631 2.253 3.066 2.281-1.125 0.881-2.538 1.406-4.078 1.406-0.266 0-0.525-0.016-0.784-0.047 1.456 0.934 3.181 1.475 5.034 1.475 6.037 0 9.341-5.003 9.341-9.341 0-0.144-0.003-0.284-0.009-0.425 0.641-0.459 1.197-1.038 1.637-1.697z">
  </path>
</symbol>

<symbol id="icon-github" viewBox="0 0 16 16">
  <title>github</title>
  <path class="path1" d="M8 0.198c-4.418 0-8 3.582-8 8 0 3.535 2.292 6.533 5.471 7.591 0.4 0.074 0.547-0.174 0.547-0.385 0-0.191-0.008-0.821-0.011-1.489-2.226 0.484-2.695-0.944-2.695-0.944-0.364-0.925-0.888-1.171-0.888-1.171-0.726-0.497 0.055-0.486 0.055-0.486 0.803 0.056 1.226 0.824 1.226 0.824 0.714 1.223 1.872 0.869 2.328 0.665 0.072-0.517 0.279-0.87 0.508-1.070-1.777-0.202-3.645-0.888-3.645-3.954 0-0.873 0.313-1.587 0.824-2.147-0.083-0.202-0.357-1.015 0.077-2.117 0 0 0.672-0.215 2.201 0.82 0.638-0.177 1.322-0.266 2.002-0.269 0.68 0.003 1.365 0.092 2.004 0.269 1.527-1.035 2.198-0.82 2.198-0.82 0.435 1.102 0.162 1.916 0.079 2.117 0.513 0.56 0.823 1.274 0.823 2.147 0 3.073-1.872 3.749-3.653 3.947 0.287 0.248 0.543 0.735 0.543 1.481 0 1.070-0.009 1.932-0.009 2.195 0 0.213 0.144 0.462 0.55 0.384 3.177-1.059 5.466-4.057 5.466-7.59 0-4.418-3.582-8-8-8z"></path>
</symbol>

<symbol id="icon-linkedin" viewBox="0 0 16 16">
  <title>linkedin</title>
  <path class="path1" d="M430.117,261.543V420.56h-92.188V272.193c0-37.271-13.334-62.707-46.703-62.707 c-25.473,0-40.632 17.142-47.301,33.724c-2.432,5.928-3.058,14.179-3.058,22.477V420.56h-92.219c0,0,1.242-251.285,0-277.32h92.21 v39.309c-0.187,0.294-0.43,0.611-0.606,0.896h0.606v-0.896c12.251-18.869,34.13-45.824,83.102-45.824 C384.633,136.724,430.117,176.361,430.117,261.543z M52.183,9.558C20.635,9.558,0,30.251,0,57.463 c0,26.619,20.038,47.94,50.959,47.94h0.616c32.159,0,52.159-21.317,52.159-47.94C103.128,30.251,83.734,9.558,52.183,9.558z M5.477,420.56h92.184v-277.32H5.477V420.56z"/>
</symbol>

<symbol id="icon-php" viewBox="0 0 128 128">
  <path fill="#6181B6" d="M64 33.039c-33.74 0-61.094 13.862-61.094 30.961s27.354 30.961 61.094 30.961 61.094-13.862 61.094-30.961-27.354-30.961-61.094-30.961zm-15.897 36.993c-1.458 1.364-3.077 1.927-4.86 2.507-1.783.581-4.052.461-6.811.461h-6.253l-1.733 10h-7.301l6.515-34h14.04c4.224 0 7.305 1.215 9.242 3.432 1.937 2.217 2.519 5.364 1.747 9.337-.319 1.637-.856 3.159-1.614 4.515-.759 1.357-1.75 2.624-2.972 3.748zm21.311 2.968l2.881-14.42c.328-1.688.208-2.942-.361-3.555-.57-.614-1.782-1.025-3.635-1.025h-5.79l-3.731 19h-7.244l6.515-33h7.244l-1.732 9h6.453c4.061 0 6.861.815 8.402 2.231s2.003 3.356 1.387 6.528l-3.031 15.241h-7.358zm40.259-11.178c-.318 1.637-.856 3.133-1.613 4.488-.758 1.357-1.748 2.598-2.971 3.722-1.458 1.364-3.078 1.927-4.86 2.507-1.782.581-4.053.461-6.812.461h-6.253l-1.732 10h-7.301l6.514-34h14.041c4.224 0 7.305 1.215 9.241 3.432 1.935 2.217 2.518 5.418 1.746 9.39zM95.919 54h-5.001l-2.727 14h4.442c2.942 0 5.136-.29 6.576-1.4 1.442-1.108 2.413-2.828 2.918-5.421.484-2.491.264-4.434-.66-5.458-.925-1.024-2.774-1.721-5.548-1.721zM38.934 54h-5.002l-2.727 14h4.441c2.943 0 5.136-.29 6.577-1.4 1.441-1.108 2.413-2.828 2.917-5.421.484-2.491.264-4.434-.66-5.458s-2.772-1.721-5.546-1.721z"></path>
</symbol>

<symbol id="icon-css" viewBox="0 0 128 128">
  <path fill="#1572B6" d="M8.76 1l10.055 112.883 45.118 12.58 45.244-12.626 10.063-112.837h-110.48zm89.591 25.862l-3.347 37.605.01.203-.014.467v-.004l-2.378 26.294-.262 2.336-28.36 7.844v.001l-.022.019-28.311-7.888-1.917-21.739h13.883l.985 11.054 15.386 4.17-.004.008v-.002l15.443-4.229 1.632-18.001h-32.282999999999994l-.277-3.043-.631-7.129-.331-3.828h34.748999999999995l1.264-14h-52.926l-.277-3.041-.63-7.131-.332-3.828h69.281l-.331 3.862z"></path>
</symbol>

<symbol id="icon-js" viewBox="0 0 128 128">
  <path fill="#F0DB4F" d="M2 1v125h125v-125h-125zm66.119 106.513c-1.845 3.749-5.367 6.212-9.448 7.401-6.271 1.44-12.269.619-16.731-2.059-2.986-1.832-5.318-4.652-6.901-7.901l9.52-5.83c.083.035.333.487.667 1.071 1.214 2.034 2.261 3.474 4.319 4.485 2.022.69 6.461 1.131 8.175-2.427 1.047-1.81.714-7.628.714-14.065-.001-10.115.046-20.188.046-30.188h11.709c0 11 .06 21.418 0 32.152.025 6.58.596 12.446-2.07 17.361zm48.574-3.308c-4.07 13.922-26.762 14.374-35.83 5.176-1.916-2.165-3.117-3.296-4.26-5.795 4.819-2.772 4.819-2.772 9.508-5.485 2.547 3.915 4.902 6.068 9.139 6.949 5.748.702 11.531-1.273 10.234-7.378-1.333-4.986-11.77-6.199-18.873-11.531-7.211-4.843-8.901-16.611-2.975-23.335 1.975-2.487 5.343-4.343 8.877-5.235l3.688-.477c7.081-.143 11.507 1.727 14.756 5.355.904.916 1.642 1.904 3.022 4.045-3.772 2.404-3.76 2.381-9.163 5.879-1.154-2.486-3.069-4.046-5.093-4.724-3.142-.952-7.104.083-7.926 3.403-.285 1.023-.226 1.975.227 3.665 1.273 2.903 5.545 4.165 9.377 5.926 11.031 4.474 14.756 9.271 15.672 14.981.882 4.916-.213 8.105-.38 8.581z"></path>
</symbol>

<symbol id="icon-java" viewBox="0 0 128 128">
  <path fill="#0074BD" d="M52.581 67.817s-3.284 1.911 2.341 2.557c6.814.778 10.297.666 17.805-.753 0 0 1.979 1.237 4.735 2.309-16.836 7.213-38.104-.418-24.881-4.113zM50.522 58.402s-3.684 2.729 1.945 3.311c7.28.751 13.027.813 22.979-1.103 0 0 1.373 1.396 3.536 2.157-20.352 5.954-43.021.469-28.46-4.365z"></path><path fill="#EA2D2E" d="M67.865 42.431c4.151 4.778-1.088 9.074-1.088 9.074s10.533-5.437 5.696-12.248c-4.519-6.349-7.982-9.502 10.771-20.378.001 0-29.438 7.35-15.379 23.552z"></path><path fill="#0074BD" d="M90.132 74.781s2.432 2.005-2.678 3.555c-9.716 2.943-40.444 3.831-48.979.117-3.066-1.335 2.687-3.187 4.496-3.576 1.887-.409 2.965-.334 2.965-.334-3.412-2.403-22.055 4.719-9.469 6.762 34.324 5.563 62.567-2.506 53.665-6.524zM54.162 48.647s-15.629 3.713-5.534 5.063c4.264.57 12.758.439 20.676-.225 6.469-.543 12.961-1.704 12.961-1.704s-2.279.978-3.93 2.104c-15.874 4.175-46.533 2.23-37.706-2.038 7.463-3.611 13.533-3.2 13.533-3.2zM82.2 64.317c16.135-8.382 8.674-16.438 3.467-15.353-1.273.266-1.845.496-1.845.496s.475-.744 1.378-1.063c10.302-3.62 18.223 10.681-3.322 16.345 0 0 .247-.224.322-.425z"></path><path fill="#EA2D2E" d="M72.474 1.313s8.935 8.939-8.476 22.682c-13.962 11.027-3.184 17.313-.006 24.498-8.15-7.354-14.128-13.828-10.118-19.852 5.889-8.842 22.204-13.131 18.6-27.328z"></path><path fill="#0074BD" d="M55.749 87.039c15.484.99 39.269-.551 39.832-7.878 0 0-1.082 2.777-12.799 4.981-13.218 2.488-29.523 2.199-39.191.603 0 0 1.98 1.64 12.158 2.294z"></path><path fill="#EA2D2E" d="M94.866 100.181h-.472v-.264h1.27v.264h-.47v1.317h-.329l.001-1.317zm2.535.066h-.006l-.468 1.251h-.216l-.465-1.251h-.005v1.251h-.312v-1.581h.457l.431 1.119.432-1.119h.454v1.581h-.302v-1.251zM53.211 115.037c-1.46 1.266-3.004 1.978-4.391 1.978-1.974 0-3.045-1.186-3.045-3.085 0-2.055 1.146-3.56 5.738-3.56h1.697v4.667h.001zm4.031 4.548v-14.077c0-3.599-2.053-5.973-6.997-5.973-2.886 0-5.416.714-7.473 1.622l.592 2.493c1.62-.595 3.715-1.147 5.771-1.147 2.85 0 4.075 1.147 4.075 3.521v1.779h-1.424c-6.921 0-10.044 2.685-10.044 6.723 0 3.479 2.058 5.456 5.933 5.456 2.49 0 4.351-1.028 6.088-2.533l.316 2.137h3.163v-.001zM70.694 119.585h-5.027l-6.051-19.689h4.391l3.756 12.099.835 3.635c1.896-5.258 3.24-10.596 3.912-15.733h4.271c-1.143 6.481-3.203 13.598-6.087 19.688zM89.982 115.037c-1.465 1.266-3.01 1.978-4.392 1.978-1.976 0-3.046-1.186-3.046-3.085 0-2.055 1.149-3.56 5.736-3.56h1.701v4.667h.001zm4.033 4.548v-14.077c0-3.599-2.059-5.973-6.999-5.973-2.889 0-5.418.714-7.475 1.622l.593 2.493c1.62-.595 3.718-1.147 5.774-1.147 2.846 0 4.074 1.147 4.074 3.521v1.779h-1.424c-6.923 0-10.045 2.685-10.045 6.723 0 3.479 2.056 5.456 5.93 5.456 2.491 0 4.349-1.028 6.091-2.533l.318 2.137h3.163v-.001zM37.322 122.931c-1.147 1.679-3.005 3.008-5.037 3.757l-1.989-2.345c1.547-.794 2.872-2.075 3.489-3.269.532-1.063.753-2.43.753-5.701v-22.482h4.284v22.173c0 4.375-.348 6.144-1.5 7.867z"></path>
</symbol>

<symbol id="icon-c" viewBox="0 0 128 128">
  <path fill="#03599C" d="M117.5 33.5l.3-.2c-.6-1.1-1.5-2.1-2.4-2.6l-48.3-27.8c-.8-.5-1.9-.7-3.1-.7-1.2 0-2.3.3-3.1.7l-48 27.9c-1.7 1-2.9 3.5-2.9 5.4v55.7c0 1.1.2 2.3.9 3.4l-.2.1c.5.8 1.2 1.5 1.9 1.9l48.2 27.9c.8.5 1.9.7 3.1.7 1.2 0 2.3-.3 3.1-.7l48-27.9c1.7-1 2.9-3.5 2.9-5.4v-55.8c.1-.8 0-1.7-.4-2.6zm-53.5 55c9.1 0 17.1-5 21.3-12.4l12.9 7.6c-6.8 11.8-19.6 19.8-34.2 19.8-21.8 0-39.5-17.7-39.5-39.5s17.7-39.5 39.5-39.5c14.7 0 27.5 8.1 34.3 20l-13 7.5c-4.2-7.5-12.2-12.5-21.3-12.5-13.5 0-24.5 11-24.5 24.5s11 24.5 24.5 24.5z"></path>
</symbol>

<symbol id="icon-pgsql" viewBox="0 0 128 128">
  <path fill-rule="evenodd" clip-rule="evenodd" fill="#336791" d="M123.258 76.784c-.45-2.918-2.901-4.829-5.752-4.958-1.032-.047-2.08.061-3.109.192-1.243.158-2.471.438-3.711.623-.857.128-1.726.187-2.582.275l-.021-.111c1.598-3.018 3.263-6.003 4.775-9.064 1.159-2.348 2.151-4.781 3.176-7.194 1.696-3.998 3.051-8.12 4.173-12.309 1.075-4.011 1.995-8.066 2.284-12.227.116-1.662.196-3.331.187-4.995-.008-1.327-.151-2.656-.284-3.979-.15-1.516-.608-2.953-1.242-4.336-.836-1.822-2.132-3.317-3.496-4.737-1.092-1.137-2.293-2.173-3.484-3.208-1.698-1.477-3.607-2.656-5.59-3.703-2.253-1.19-4.621-2.121-7.09-2.75-1.493-.381-3.02-.664-4.532-.966-.544-.11-1.089-.337-1.633-.337h-10.241c-.37 0-.737.191-1.11.233-2.452.273-4.875.735-7.228 1.464-.88.273-1.684.101-2.52.024-.641-.059-1.271-.231-1.912-.263-2.442-.122-4.887-.301-7.328-.275-2.339.024-4.654.409-6.918 1.052-1.895.538-3.749 1.195-5.447 2.191-.727.426-1.303.346-2.055.129-2.527-.729-5.072-1.414-7.639-1.989-1.6-.358-3.245-.536-4.879-.707-1.566-.163-3.144-.261-4.718-.294-1.538-.033-3.087-.032-4.618.104-2.439.217-4.832.713-7.158 1.513-2.583.888-4.951 2.175-7.086 3.865-2.167 1.715-3.905 3.809-5.303 6.2-1.473 2.523-2.483 5.224-3.111 8.061-.34 1.537-.555 3.117-.788 4.678-.073.486.732.972-.268 1.456v6.794c1 .452.208.903.266 1.356.139 1.089.262 2.187.446 3.268.291 1.711.636 3.417.988 5.117.491 2.375 1.002 4.748 1.546 7.111.396 1.72.847 3.43 1.319 5.131.721 2.598 1.431 5.201 2.246 7.77.757 2.387 1.624 4.74 2.484 7.093 1.191 3.255 2.617 6.405 4.327 9.424 1.479 2.614 3.169 5.062 5.436 7.076 1.494 1.327 3.157 2.347 5.093 2.857 1.521.4 3.067.448 4.624.129 1.805-.37 3.403-1.147 4.824-2.311.163-.134.342-.236.535.01.735.931 1.719 1.552 2.748 2.089 2.777 1.448 5.803 1.882 8.877 2.059.744.043 1.496-.064 2.246-.085 1.461-.04 2.881-.325 4.278-.729.732-.212 1.447-.481 2.192-.732.039.793.089 1.557.112 2.321l.104 4.166c.019.634.044 1.27.103 1.901.151 1.627.299 3.255.493 4.877.135 1.118.275 2.245.538 3.336.529 2.203 1.246 4.348 2.158 6.428.895 2.041 2.182 3.764 3.9 5.185 2.22 1.836 4.822 2.619 7.632 2.764 1.162.061 2.357.004 3.501-.204 1.813-.329 3.622-.743 5.387-1.275 3.591-1.084 6.695-2.956 9.014-5.981 1.32-1.724 2.404-3.589 3.1-5.648.574-1.701 1.115-3.419 1.545-5.16.34-1.372.508-2.787.715-4.188.137-.927.219-1.863.305-2.797.14-1.517.283-3.033.384-4.553.07-1.058.067-2.121.109-3.181.013-.323.065-.644.095-.966.028-.298.178-.401.482-.396 1.071.016 2.144.044 3.212-.004 1.197-.054 2.405-.105 3.583-.303 1.677-.281 3.346-.636 4.99-1.067 1.943-.508 3.725-1.418 5.44-2.455 1.998-1.207 3.819-2.623 5.297-4.447 1.285-1.591 1.894-3.43 1.584-5.438zm-3.412.982c-.066.915-.485 1.699-1.093 2.369-2.869 3.163-6.468 5.082-10.585 6.027-1.564.358-3.178.544-4.779.692-1.363.126-2.746.147-4.114.097-1.006-.038-2.004-.268-3.032-.416-.103.94-.201 1.919-.32 2.896l-.479 3.745c-.145 1.187-.258 2.378-.407 3.564-.146 1.151-.328 2.298-.481 3.449-.143 1.072-.248 2.149-.407 3.219-.245 1.64-.479 3.284-.799 4.911-.384 1.945-.973 3.829-1.934 5.583-1.172 2.141-2.834 3.772-4.949 4.98-2.18 1.246-4.563 1.894-6.979 2.436-1.71.384-3.472.447-5.204.291-3.004-.272-5.568-1.557-7.506-3.886-1.85-2.223-3.102-4.771-3.55-7.655-.214-1.371-.368-2.754-.491-4.136-.136-1.537-.229-3.079-.299-4.62-.089-1.957-.154-3.914-.197-5.871-.053-2.406-.07-4.812-.104-7.218l-.006-.092c-1.224.734-2.427 1.538-3.703 2.2-1.494.776-3.117 1.226-4.798 1.353-1.318.1-2.653.191-3.965.086-2.151-.173-4.3-.51-6.226-1.569-.781-.43-1.596-.953-2.134-1.64-1.29-1.646-.672-3.726 1.273-4.727 1.344-.693 2.811-.982 4.268-1.319 1.266-.293 2.526-.626 3.761-1.029 1.222-.4 1.993-1.391 2.754-2.363l1.206-1.551c-.503-.053-.977-.107-1.451-.151-1.439-.136-2.812-.532-4.125-1.114-1.124-.497-1.141-.551-1.965.343-1.376 1.494-2.714 3.023-4.062 4.542-.992 1.117-1.978 2.241-2.965 3.361-.978 1.108-1.894 2.279-2.947 3.31-1.564 1.531-3.449 2.452-5.698 2.348-1.443-.066-2.764-.572-3.952-1.399-2.452-1.708-4.104-4.097-5.608-6.606-1.927-3.215-3.406-6.64-4.672-10.159-.876-2.432-1.756-4.866-2.521-7.333-.831-2.681-1.56-5.396-2.277-8.11-.542-2.048-1.023-4.113-1.482-6.182-.521-2.353-1.022-4.71-1.464-7.079-.298-1.599-.471-3.221-.712-4.831-.325-2.17-.385-4.36-.267-6.539.105-1.963.387-3.921.667-5.871.388-2.698 1.277-5.244 2.556-7.648.783-1.473 1.755-2.812 2.879-4.056 1.845-2.042 4.078-3.518 6.562-4.626 1.736-.774 3.57-1.24 5.439-1.604 2.774-.54 5.573-.519 8.373-.461 1.224.025 2.443.248 3.666.369 2.633.262 5.214.816 7.762 1.5 1.857.498 3.676 1.143 5.518 1.703.185.056.456.051.607-.048 2.496-1.629 5.224-2.704 8.125-3.319 1.101-.233 2.237-.335 3.363-.407 1.369-.087 2.749-.167 4.115-.088 1.642.094 3.276.336 4.908.56.792.108 1.565.383 2.359.458.38.036.783-.242 1.185-.335 2.049-.473 4.089-1 6.156-1.374 1.539-.278 3.111-.409 4.676-.499 1.745-.1 3.503-.173 5.247-.089 2.205.106 4.394.42 6.555.923 2.677.623 5.245 1.528 7.686 2.784 1.824.938 3.558 2.026 5.119 3.364 1.023.878 2.07 1.745 2.994 2.723 1.14 1.206 2.303 2.413 3.018 3.958.538 1.165.922 2.371 1.028 3.647.132 1.586.292 3.178.277 4.766-.014 1.519-.221 3.037-.368 4.552-.334 3.454-1.085 6.833-1.997 10.167-.754 2.754-1.635 5.478-2.589 8.17-.879 2.481-1.893 4.917-2.918 7.343-.757 1.794-1.572 3.569-2.458 5.303-1.677 3.286-3.421 6.538-5.438 9.633-.348.535-.678 1.083-1.018 1.629.88.594 1.877.803 2.881.911.955.104 1.929.166 2.883.095 1.527-.113 3.049-.331 4.567-.544 1.504-.21 2.978-.638 4.522-.525 1.542.112 2.645 1.284 2.54 2.729zM97.833 74.413c-.655-.846-1.323-1.682-1.964-2.538-1.006-1.344-1.729-2.845-2.455-4.353-.688-1.429-1.532-2.782-2.257-4.195-1.265-2.465-2.553-4.922-3.718-7.435-1.465-3.157-2.62-6.426-2.984-9.923-.154-1.48-.193-2.958.106-4.424.479-2.341 1.702-4.172 3.758-5.428 1.907-1.165 4.032-1.541 6.209-1.659 1.351-.073 2.708-.013 4.11-.013l-.047-.237c-.872-1.823-1.687-3.677-2.641-5.457-1.346-2.512-3.068-4.777-4.986-6.877-1.421-1.555-2.96-2.998-4.646-4.273-1.658-1.255-3.405-2.376-5.269-3.293-2.223-1.093-4.538-1.938-6.967-2.477-2.334-.518-4.683-.835-7.077-.861-2.042-.022-4.071.07-6.06.531-3.002.695-5.748 1.931-8.137 3.933-1.334 1.118-2.498 2.373-3.517 3.77-1.196 1.643-2.161 3.417-2.986 5.277-1.132 2.552-1.909 5.208-2.44 7.938-.266 1.361-.474 2.734-.686 4.106-.074.48-.08.971-.123 1.521.369-.192.635-.34.907-.472l.885-.397c2.993-1.369 6.094-2.25 9.427-2.149 1.416.043 2.771.323 4.03.943 2.415 1.191 3.828 3.216 4.442 5.779.424 1.769.714 3.573.996 5.372.221 1.405.447 2.825.473 4.242.037 2.071-.068 4.146-.181 6.216-.096 1.764-.464 3.5-1.08 5.146-1.12 2.993-2.368 5.937-3.534 8.913-.385.983-.681 2.001-1.045 3.082.562 0 1.018-.004 1.474.002.178.003.36.008.532.049 1.34.316 2.502.923 3.455 1.954 1.271 1.372 1.938 2.973 1.972 4.826.019 1.027-.089 2.057-.084 3.084.021 4.786.057 9.572.097 14.357.007.782.046 1.565.102 2.346.117 1.635.235 3.271.395 4.902.112 1.157.268 2.312.451 3.461.259 1.628 1 3.077 1.841 4.462.724 1.191 1.665 2.203 2.905 2.901 2.107 1.186 4.376 1.285 6.663.848 1.545-.295 3.062-.769 4.562-1.258 1.479-.481 2.815-1.269 3.937-2.354 1.051-1.019 1.797-2.261 2.3-3.632.976-2.659 1.28-5.459 1.684-8.237.151-1.04.282-2.083.42-3.125.157-1.186.316-2.371.468-3.556.112-.883.214-1.768.322-2.651.154-1.268.317-2.535.464-3.804.113-.981.209-1.966.309-2.949.129-1.256.268-2.512.379-3.77.086-.955.051-1.927.22-2.864.311-1.718 1.123-3.18 2.646-4.125.637-.395 1.356-.655 2.063-.989l-.12-.186zM40.236 67.361c-.761-1.802-1.218-3.68-1.354-5.622-.128-1.825.089-3.643.276-5.46.182-1.76.333-3.528.386-5.296.088-2.906-.108-5.808-.247-8.712-.084-1.729.117-3.479.271-5.212.139-1.561.312-3.126.607-4.664.495-2.581 1.152-5.125 2.086-7.591.887-2.338 1.906-4.615 3.345-6.665.986-1.406 2.105-2.72 3.18-4.094l-.319-.113c-3.498-1.111-7.053-1.979-10.709-2.358-1.729-.179-3.464-.284-5.198-.387-.532-.032-1.072.04-1.606.091-1.322.126-2.66.176-3.961.424-2.214.421-4.338 1.129-6.305 2.282-1.766 1.035-3.249 2.373-4.491 3.978-1.372 1.772-2.295 3.776-2.958 5.913-.783 2.521-1.156 5.115-1.257 7.733-.088 2.295-.132 4.603.264 6.889.295 1.702.492 3.422.817 5.117.443 2.311.918 4.617 1.467 6.904.785 3.274 1.569 6.553 2.499 9.787.89 3.099 1.894 6.17 2.982 9.204.89 2.476 1.919 4.906 3.003 7.304.706 1.562 1.561 3.065 2.457 4.528.953 1.553 2.037 3.027 3.508 4.154 1.856 1.423 3.293 1.644 5.179.083.808-.669 1.491-1.495 2.194-2.282 1.117-1.25 2.195-2.534 3.307-3.788 1.416-1.598 2.85-3.179 4.273-4.769.301-.336.59-.682.883-1.022l-.484-.425c-1.769-1.699-3.139-3.669-4.095-5.931zM93.924 19.792c1.156 1.356 2.275 2.752 3.309 4.204 2 2.809 3.598 5.842 4.775 9.087.521 1.43.937 2.874.751 4.439-.129 1.096-.118 2.208-.215 3.31-.081.917-.226 1.829-.345 2.743-.178 1.378-.436 2.752-.513 4.136-.073 1.317.003 2.648.086 3.968.084 1.341.265 2.676.388 4.015.139 1.518.326 3.036.369 4.557.035 1.249-.076 2.506-.185 3.753-.13 1.502-.511 2.956-1.079 4.351-.399.982-.876 1.934-1.327 2.917l.181.192.275.213.277-.496c2.339-3.688 4.42-7.518 6.222-11.493 1.159-2.56 2.245-5.156 3.287-7.766 1.624-4.064 2.909-8.242 3.903-12.503.446-1.913.787-3.855 1.09-5.797.236-1.518.433-3.054.477-4.586.047-1.625-.043-3.263-.193-4.884-.112-1.224-.414-2.456-1.181-3.451-1.233-1.602-2.564-3.134-4.201-4.346-1.378-1.021-2.751-2.068-4.23-2.927-2.345-1.36-4.883-2.266-7.535-2.883-2.588-.603-5.21-.863-7.849-.918-1.556-.033-3.119.134-4.672.28-1.407.132-2.805.357-4.222.543 1.52.855 3.019 1.615 4.433 2.511 2.973 1.883 5.637 4.149 7.924 6.831zM55.299 72.514c.961-3.073 2.27-6.007 3.538-8.959 1.028-2.394 1.59-4.916 1.777-7.506.093-1.277.067-2.57.004-3.851-.071-1.423-.185-2.85-.392-4.259-.266-1.801-.569-3.603-.995-5.371-.462-1.913-1.627-3.245-3.623-3.736-1.216-.299-2.424-.287-3.653-.093-3.002.473-5.75 1.579-8.31 3.199-.515.326-.798.589-.709 1.328.188 1.565.229 3.155.222 4.735-.01 2.236-.105 4.472-.19 6.707-.028.728-.133 1.452-.211 2.177-.12 1.11-.351 2.219-.344 3.327.007 1.142.124 2.311.401 3.417.88 3.507 2.744 6.377 5.799 8.402 1.879 1.245 3.958 1.873 6.24 1.992.155-.524.293-1.019.446-1.509zm-3.586-30.087c-.402-.844-.172-1.543.76-1.867.227-.08.461-.165.697-.188.324-.032.654-.008.982-.008 1.182.006 2.319.171 3.295.923.626.482.794 1.122.389 1.779-.575.932-1.452 1.4-2.529 1.49-1.697.141-2.888-.65-3.594-2.129zM98.753 42.119c.136-1.124.245-2.251.384-3.375.056-.452-.182-.574-.561-.585-1.192-.033-2.384-.075-3.576-.097-1.344-.024-2.652.192-3.896.703-1.38.568-2.431 1.478-2.86 2.98-.32 1.12-.406 2.239-.293 3.41.172 1.785.568 3.517 1.193 5.176.834 2.221 1.707 4.441 2.75 6.569 1.413 2.881 3.012 5.67 4.513 8.507.401.757.738 1.547 1.156 2.431.875-1.853 1.302-3.708 1.351-5.622.041-1.61-.088-3.227-.182-4.838-.059-.986-.198-1.966-.294-2.95-.134-1.371-.337-2.741-.368-4.115-.031-1.397.068-2.802.188-4.197.113-1.338.334-2.665.495-3.997zm-2.689-1.082c-.443 1.223-1.39 1.913-2.618 2.116-1.145.188-2.148-.235-2.894-1.148-.531-.65-.328-1.42.468-1.859.914-.506 1.919-.634 3.104-.711.322.059.807.108 1.268.24.669.189.916.692.672 1.362zM60.642 78.697c-.655-.535-1.521-.566-2.144.021-.773.73-1.453 1.565-2.133 2.388-.785.951-1.521 1.94-2.534 2.677-1.474 1.071-3.192 1.515-4.919 1.935-1.373.334-2.752.644-4.129.965l-.017.178c.409.189.805.425 1.231.56 2.1.665 4.236.996 6.455.808 1.602-.136 3.128-.485 4.574-1.171 1.99-.943 3.521-2.437 4.823-4.175.218-.29.317-.719.343-1.093.089-1.321-.582-2.303-1.55-3.093zM112.393 79.223c-1.69.181-3.382.373-5.077.47-.818.047-1.648-.109-2.474-.176-1.385-.112-2.737-.42-3.908-1.16-.678-.427-1.241-.475-1.961-.233-1.028.346-1.867.872-2.115 1.986-.169.753-.23 1.533-.298 2.304-.013.136.157.386.287.42.793.209 1.59.456 2.401.529.996.09 2.01.061 3.013.011 1.083-.054 2.173-.124 3.24-.304 2.515-.422 4.948-1.11 7.109-2.536.779-.515 1.551-1.041 2.325-1.562l-.064-.11c-.826.123-1.648.273-2.478.361z"></path>
</symbol>

<symbol id="icon-mongodb" viewBox="0 0 128 128">
  <path fill-rule="evenodd" clip-rule="evenodd" fill="#4FAA41" d="M90.491 57.282c-.37-4.79-1.496-9.409-3.062-13.934-3.244-10.104-8.45-19.046-15.783-26.74-1.854-1.946-3.916-3.729-5.209-6.151-.818-1.532-1.597-3.085-2.394-4.629l-.505-1.273c-.085.292-.139.396-.142.501-.065 2.517-1.491 4.224-3.267 5.817-1.997 1.793-3.856 3.739-5.775 5.618-1.968 2.588-3.935 5.176-5.901 7.763-1.592 2.925-3.182 5.85-4.772 8.775l-3.19 8.617-.096.134c-1.756 5.768-2.622 11.698-3.048 17.688-.16 2.251.022 4.535.149 6.798.181 3.235.743 6.415 1.586 9.545 3.062 11.372 9.276 20.805 17.771 28.819 1.579 1.489 3.199 2.843 4.847 4.26.282-.965.507-1.93.763-2.895.256-.961.515-1.917.688-2.881-.174.964-.369 1.92-.562 2.881l-.826 2.895.738 2.501.684 3.884.326 4.053c-.003.823-.036 1.648.014 2.47.012.21.288.404.442.606l1.376.483 1.434.558-.246-3.603-.011-3.548.495-5.405.359-1.177 1.027-1.82c1.268-1.02 2.629-1.946 3.784-3.081 2.09-2.054 4.175-4.134 6.045-6.383 2.427-2.917 4.515-6.101 6.191-9.516 1.122-2.284 2.178-4.614 3.052-7.001.77-2.104 1.247-4.315 1.854-6.479.054-.156.126-.309.16-.468 1.254-5.841 1.465-11.741 1.004-17.682zm-23.599 49.375l-.805-1.763.805 1.763 1.183 1.01-1.183-1.01z"></path>
</symbol>

<symbol id="icon-redis" viewBox="0 0 128 128">
  <path d="M6.2 52.7c6.7 3.2 43.7 18.1 49.5 20.9 5.8 2.8 10 2.8 17.4-1 7.4-3.9 42.2-18.1 48.9-21.6 3.4-1.8 4.9-3.2 4.9-4.4v-12.5c0-1.3-1.7-2.4-5-3.6-6.5-2.4-41.1-16.1-47.7-18.6-6.6-2.4-9.3-2.3-17.1.5-7.8 2.8-44.5 17.2-51.1 19.8-3.2 1.3-5 2.4-5 3.7h-.2v12.7c.2 1.2 2.1 2.5 5.4 4.1zm60.4 1.8l-20.3-8.4 29.1-4.5-8.8 12.9zm44.1-20l-17.2 6.8-1.9.7-17.2-6.8 19.1-7.5 17.2 6.8zm-50.6-12.5l-2.8-5.2 8.8 3.4 8.3-2.7-2.2 5.4 8.4 3.2-10.9 1.1-2.4 5.9-3.9-6.5-12.6-1.1 9.3-3.5zm-21.7 7.3c8.6 0 15.6 2.7 15.6 6s-7 6-15.6 6-15.6-2.7-15.6-6 7-6 15.6-6zM122 59.8c-6.7 3.5-41.4 17.8-48.8 21.6-7.4 3.9-11.5 3.8-17.3 1-5.8-2.8-43-17.7-49.6-20.9-3.4-1.6-5.3-2.9-5.3-4.2v12.7c0 1.3 1.9 2.6 5.2 4.2 6.7 3.2 43.7 18.1 49.5 20.9 5.8 2.8 10 2.8 17.4-1 7.4-3.9 42.2-18.1 48.9-21.6 3.4-1.8 4.9-3.2 4.9-4.4v-12.5c0 1.1-1.6 2.5-4.9 4.2zM122 80.5c-6.7 3.5-41.4 17.8-48.8 21.6-7.4 3.9-11.5 3.8-17.3 1-5.8-2.8-43-17.7-49.6-20.9-3.4-1.5-5.3-2.9-5.3-4.2v12.7c0 1.3 1.9 2.6 5.2 4.2 6.7 3.2 43.7 18.1 49.5 20.9 5.8 2.8 10 2.8 17.4-1 7.4-3.9 42.2-18.1 48.9-21.6 3.4-1.8 4.9-3.2 4.9-4.4v-12.5c0 1.2-1.6 2.5-4.9 4.2z"></path>
</symbol>

<symbol id="icon-ngnix" viewBox="0 0 128 128">
  <path d="M24.5 50.5c-1.5 0-2.5 1.2-2.5 2.7v14.1l-15.9-16c-.8-.8-2.2-1-3.2-.6s-1.9 1.4-1.9 2.5v20.7c0 1.5 1.5 2.7 3 2.7s3-1.2 3-2.7v-14.1l16.1 16c.5.5 1.2.8 1.9.8.3 0 .4-.1.7-.2 1-.4 1.3-1.4 1.3-2.5v-20.6c0-1.5-1-2.8-2.5-2.8zM44.2 62.3c-1.4 0-2.7 1.4-2.7 2.8s1.3 2.8 2.7 2.8l6.6.4-1.5 3.7h-8.5l-4.2-7.9 4.3-8.1h9.1l2.1 4h5.5l-3.6-7.9-.8-1.1h-15.6l-.7 1.2-5.9 10.3-.7 1.3.7 1.3 5.8 10.3.8 1.6h15.1l.7-1.7 4.3-9 1.9-4.3h-4.4l-11 .3zM65 50.5c-1.4 0-3 1.3-3 2.7v6.8h6v-6.7c0-1.5-1.6-2.8-3-2.8zM95.4 50.8c-1-.4-2.4-.2-3.1.6l-16.3 16v-14.1c0-1.5-1-2.7-2.5-2.7s-2.5 1.2-2.5 2.7v20.7c0 1.1.7 2.1 1.7 2.5.3.1.7.2 1 .2.7 0 1.6-.3 2.1-.8l16.2-16v14.1c0 1.5 1 2.7 2.5 2.7s2.5-1.2 2.5-2.7v-20.7c0-1.1-.6-2.1-1.6-2.5zM117.2 63.6l8.4-8.4c1.1-1.1 1.1-2.8 0-3.8-1.1-1.1-2.8-1.1-3.8 0l-8.4 8.4-8.4-8.4c-1.1-1.1-2.8-1.1-3.8 0-1.1 1.1-1.1 2.8 0 3.8l8.4 8.4-8.4 8.4c-1.1 1.1-1.1 2.8 0 3.8.5.5 1.2.8 1.9.8s1.4-.3 1.9-.8l8.4-8.4 8.4 8.4c.5.5 1.2.8 1.9.8s1.4-.3 1.9-.8c1.1-1.1 1.1-2.8 0-3.8l-8.4-8.4zM62 73.9c0 1.4 1.5 2.7 3 2.7 1.4 0 3-1.3 3-2.7v-11.9h-6v11.9z"></path>
</symbol>

<symbol id="icon-linux" viewBox="0 0 128 128">
  <path fill-rule="evenodd" clip-rule="evenodd" d="M113.823 104.595c-1.795-1.478-3.629-2.921-5.308-4.525-1.87-1.785-3.045-3.944-2.789-6.678.147-1.573-.216-2.926-2.113-3.452.446-1.154.864-1.928 1.033-2.753.188-.92.178-1.887.204-2.834.264-9.96-3.334-18.691-8.663-26.835-2.454-3.748-5.017-7.429-7.633-11.066-4.092-5.688-5.559-12.078-5.633-18.981-.036-3.166-.41-6.38-1.081-9.475-1.313-6.04-4.549-10.763-10.418-13.296-4.497-1.942-9.152-2.327-13.901-1.084-6.901 1.805-11.074 6.934-10.996 14.088.074 6.885.417 13.779.922 20.648.288 3.893-.312 7.252-2.895 10.34-2.484 2.969-4.706 6.172-6.858 9.397-1.229 1.844-2.317 3.853-3.077 5.931-2.07 5.663-3.973 11.373-7.276 16.5-1.224 1.9-1.363 4.026-.494 6.199.225.563.363 1.429.089 1.882-2.354 3.907-5.011 7.345-10.066 8.095-3.976.591-4.172 1.314-4.051 5.413.1 3.337.061 6.705-.28 10.021-.363 3.555.008 4.521 3.442 5.373 7.924 1.968 15.913 3.647 23.492 6.854 3.227 1.365 6.465.891 9.064-1.763 2.713-2.771 6.141-3.855 9.844-3.859 6.285-.005 12.572.298 18.86.369 1.702.02 2.679.653 3.364 2.199.84 1.893 2.26 3.284 4.445 3.526 4.193.462 8.013-.16 11.19-3.359 3.918-3.948 8.436-7.066 13.615-9.227 1.482-.619 2.878-1.592 4.103-2.648 2.231-1.922 2.113-3.146-.135-5zm-51.397-80.475c.758-2.601 2.537-4.289 5.243-4.801 2.276-.43 4.203.688 5.639 3.246 1.546 2.758 2.054 5.64.734 8.658-1.083 2.474-1.591 2.707-4.123 1.868-.474-.157-.937-.343-1.777-.652.708-.594 1.154-1.035 1.664-1.382 1.134-.772 1.452-1.858 1.346-3.148-.139-1.694-1.471-3.194-2.837-3.175-1.225.017-2.262 1.167-2.4 2.915-.086 1.089.095 2.199.173 3.589-3.446-1.023-4.711-3.525-3.662-7.118zm-12.75-2.251c1.274-1.928 3.197-2.314 5.101-1.024 2.029 1.376 3.547 5.256 2.763 7.576-.285.844-1.127 1.5-1.716 2.241l-.604-.374c-.23-1.253-.276-2.585-.757-3.733-.304-.728-1.257-1.184-1.919-1.762-.622.739-1.693 1.443-1.757 2.228-.088 1.084.477 2.28.969 3.331.311.661 1.001 1.145 1.713 1.916l-1.922 1.51c-3.018-2.7-3.915-8.82-1.871-11.909zm37.664 64.206c-.203 2.604-.5 2.713-3.118 3.098-1.859.272-2.359.756-2.453 2.964-.108 2.581-.101 5.171-.012 7.753.061 1.77-.537 3.158-1.755 4.393-6.764 6.856-14.845 10.105-24.512 8.926-4.17-.509-6.896-3.047-9.097-6.639.98-.363 1.705-.607 2.412-.894 3.122-1.27 3.706-3.955 1.213-6.277-1.884-1.757-3.986-3.283-6.007-4.892-1.954-1.555-3.934-3.078-5.891-4.629-1.668-1.323-2.305-3.028-2.345-5.188-.094-5.182.972-10.03 3.138-14.747 1.932-4.209 3.429-8.617 5.239-12.885.935-2.202 1.906-4.455 3.278-6.388 1.319-1.854 2.134-3.669 1.988-5.94-.084-1.276-.016-2.562-.016-3.843l.707-.352c1.141.985 2.302 1.949 3.423 2.959 4.045 3.646 7.892 3.813 12.319.67 1.888-1.341 3.93-2.47 5.927-3.652.497-.294 1.092-.423 1.934-.738 2.151 5.066 4.262 10.033 6.375 15 1.072 2.524 1.932 5.167 3.264 7.547 2.671 4.775 4.092 9.813 4.07 15.272-.012 2.83.137 5.67-.081 8.482z"></path>
</symbol>

<symbol id="icon-quotes-left" viewBox="0 0 16 16">
  <title>quotes-left</title>
  <path class="path1" d="M3.516 7c1.933 0 3.5 1.567 3.5 3.5s-1.567 3.5-3.5 3.5-3.5-1.567-3.5-3.5l-0.016-0.5c0-3.866 3.134-7 7-7v2c-1.336 0-2.591 0.52-3.536 1.464-0.182 0.182-0.348 0.375-0.497 0.578 0.179-0.028 0.362-0.043 0.548-0.043zM12.516 7c1.933 0 3.5 1.567 3.5 3.5s-1.567 3.5-3.5 3.5-3.5-1.567-3.5-3.5l-0.016-0.5c0-3.866 3.134-7 7-7v2c-1.336 0-2.591 0.52-3.536 1.464-0.182 0.182-0.348 0.375-0.497 0.578 0.179-0.028 0.362-0.043 0.549-0.043z"></path>
</symbol>

<symbol id="icon-close" viewBox="0 0 24 24">
  <title>close</title>
  <path class="path1" d="M19 6.41L17.59 5 12 10.59 6.41 5 5 6.41 10.59 12 5 17.59 6.41 19 12 13.41 17.59 19 19 17.59 13.41 12z"/>
</symbol>


</defs>
</svg>